<mxfile host="app.diagrams.net" modified="2024-03-19T11:43:55.971Z" agent="Mozilla/5.0 (Macintosh; Intel Mac OS X 10_15_7) AppleWebKit/537.36 (KHTML, like Gecko) Chrome/120.0.0.0 Safari/537.36" version="23.1.8" etag="zHApJ623PjiQxpIqvJje" type="github">
  <diagram name="페이지-1" id="npTmI2Z9MJUhStfeOc48">
    <mxGraphModel>
      <root>
        <mxCell id="0" />
        <mxCell id="1" parent="0" />
      </root>
    </mxGraphModel>
  </diagram>
</mxfile>
